<?xml version="1.0" standalone="no"?>
<!DOCTYPE svg PUBLIC "-//W3C//DTD SVG 1.1//EN" "http://www.w3.org/Graphics/SVG/1.1/DTD/svg11.dtd">
<!-- https://ai.logo123.com/make -->
<svg data-v-2cb57da0="" version="1.0" xmlns="http://www.w3.org/2000/svg" xmlns:xlink="http://www.w3.org/1999/xlink" width="100%" height="19vh" viewBox="0 80 340.000000 200.000000" preserveAspectRatio="xMidYMid meet" color-interpolation-filters="sRGB" style="margin: auto;"><rect data-v-2cb57da0="" x="0" y="0" width="100%" height="100%" fill="#eeebe0" fill-opacity="1" class="background"></rect> <rect data-v-2cb57da0="" x="0" y="0" width="100%" height="100%" fill="url(#watermark)" fill-opacity="1" class="watermarklayer"></rect> <g data-v-2cb57da0="" fill="#cd8c2a" class="pmspacesvg" transform="translate(5.779838055372238,59.18030548095703)"><!----> <g><g transform="translate(30.262954711914062,0)" mask="url(#eb213916-31cc-4748-b309-4f3ccd92df5f)"><g><rect data-gra="graph-name" fill="#cd8c2a" x="0" y="0" rx="41.74039268493652" ry="41.74039268493652" width="267.9398193359375" height="83.48078536987305"></rect></g> <g data-gra="path-name" fill-rule="" class="tp-name" transform="translate(20,10)"><g transform="scale(1.4558331298828076)"><g><path d="M3.98-31.41L9.38-31.41 9.38 0 3.98 0 3.98-31.41ZM9.38-42.89L9.38-37.03 3.98-37.03 3.98-42.89 9.38-42.89ZM21.8-21.8L21.8-21.8 16.88-21.8Q17.11-32.34 29.77-32.34L29.77-32.34Q41.02-31.88 41.25-23.44L41.25-23.44 41.25-5.39Q41.25-3.52 43.13-3.52L43.13-3.52Q43.36-3.52 43.83-3.52L43.83-3.52Q44.53-3.75 45-3.75L45-3.75 45 0Q44.53 0 43.83 0L43.83 0Q42.66 0.23 41.95 0.23L41.95 0.23Q36.33 0.23 36.56-4.22L36.56-4.22Q31.88 0.47 25.08 0.47L25.08 0.47Q15.7 0 15.23-8.2L15.23-8.2Q15.47-16.64 24.84-18.05L24.84-18.05 33.52-18.98Q36.33-19.45 36.33-22.73L36.33-22.73Q36.33-27.89 28.83-27.89L28.83-27.89Q22.27-27.89 21.8-21.8ZM36.09-10.78L36.09-10.78 36.09-15.94Q34.22-14.77 27.42-13.83L27.42-13.83Q20.86-13.36 20.86-8.91L20.86-8.91Q20.86-3.52 26.25-3.52L26.25-3.52Q35.39-4.22 36.09-10.78ZM55.55 0L50.16 0 50.16-31.41 55.31-31.41 55.31-26.95Q58.83-32.34 64.92-32.34L64.92-32.34Q70.31-32.34 72.89-27.42L72.89-27.42Q73.13-27.19 73.13-27.19L73.13-27.19Q77.34-32.58 82.73-32.34L82.73-32.34Q92.34-31.64 92.58-21.56L92.58-21.56 92.58 0 87.19 0 87.19-20.16Q87.42-27.66 81.33-27.42L81.33-27.42Q74.77-26.72 74.06-18.98L74.06-18.98 74.06 0 68.67 0 68.67-21.56Q68.67-27.42 63.75-27.42L63.75-27.42Q55.78-26.95 55.55-17.11L55.55-17.11 55.55 0ZM104.06-26.95L104.06-26.95 98.67-26.95Q98.91-41.72 113.2-42.19L113.2-42.19Q125.86-41.48 126.56-29.53L126.56-29.53Q127.03-20.86 115.08-15.47L115.08-15.47 110.63-12.89Q104.3-9.38 103.59-4.92L103.59-4.92 126.56-4.92 126.56 0 97.73 0Q97.97-11.48 107.58-16.64L107.58-16.64 113.2-19.92Q121.41-24.14 120.94-29.77L120.94-29.77Q120.47-37.03 112.5-37.27L112.5-37.27Q104.3-37.27 104.06-26.95ZM159.61-30.94L159.61-30.94 154.45-30.94Q153.28-37.27 147.19-37.27L147.19-37.27Q138.05-36.8 137.11-21.8L137.11-21.8 137.34-21.56Q140.16-26.72 147.19-26.72L147.19-26.72Q160.08-25.78 160.55-13.36L160.55-13.36Q160.55-7.27 156.33-2.81L156.33-2.81Q153.28 0.94 145.78 0.7L145.78 0.7Q138.52 0.47 134.77-4.92L134.77-4.92Q131.72-10.08 131.72-19.45L131.72-19.45Q132.19-41.72 147.19-42.19L147.19-42.19Q158.44-41.48 159.61-30.94ZM137.81-12.89L137.81-12.89Q138.28-3.75 146.72-3.52L146.72-3.52Q154.45-3.98 154.92-13.13L154.92-13.13Q154.45-21.8 146.48-22.03L146.48-22.03Q138.28-21.8 137.81-12.89Z" transform="translate(-3.9800000190734863, 42.88999938964844)"></path></g> <!----> <!----> <!----> <!----> <!----> <!----> <!----></g></g></g> <g data-gra="path-slogan" fill-rule="" class="tp-slogan" fill="#cd8c2a" transform="translate(0,94.48078918457031)"><!----> <!----> <g transform="scale(1, 1)"><g transform="scale(3.387292480468762)"><path d="M0.84-7.88L0.84-8.95Q2.02-8.86 2.81-8.86L2.81-8.86L8.91-8.86Q10.41-8.91 11.25-8.95L11.25-8.95L11.25-7.88Q10.73-7.92 8.91-7.92L8.91-7.92L6.23-7.92L6.23-1.64Q6.23-0.14 6.33 0.84L6.33 0.84L5.11 0.84Q5.16 0 5.20-1.64L5.20-1.64L5.20-7.92L2.81-7.92Q1.69-7.92 0.84-7.88L0.84-7.88ZM6.70-5.34L7.45-6.19Q9.33-4.73 10.73-3.33L10.73-3.33L9.80-2.39Q8.39-4.03 6.70-5.34L6.70-5.34ZM24.16-4.97L24.16-4.97L24.16-3.80Q23.41-3.89 22-3.89L22-3.89L16.05-3.89Q14.55-3.89 13.75-3.80L13.75-3.80L13.75-4.97Q14.64-4.88 15.95-4.88L15.95-4.88L21.91-4.88Q23.41-4.88 24.16-4.97ZM28.63-9L29.61-9.28Q29.89-8.72 30.17-7.59L30.17-7.59L29.19-7.31Q28.95-8.20 28.63-9L28.63-9ZM31.86-7.17L31.86-7.17L31.86-6.14Q31.77-6.14 31.30-6.14L31.30-6.14Q30.50-6.19 30.22-6.19L30.22-6.19L28.30-6.19Q27.22-6.19 26.80-6.14L26.80-6.14L26.80-7.17Q27.08-7.17 28.30-7.13L28.30-7.13L30.17-7.13Q30.36-7.13 30.97-7.13L30.97-7.13Q31.63-7.17 31.86-7.17ZM29.98-5.72L29.98-5.72Q31.16-5.53 31.16-5.39L31.16-5.39Q31.16-5.34 31.06-5.20L31.06-5.20Q30.92-4.97 30.88-4.69L30.88-4.69Q30.78-4.22 30.41-2.86L30.41-2.86Q30.03-1.55 29.98-1.31L29.98-1.31L31.34-1.55L31.34-0.66Q29.52-0.23 26.89 0.19L26.89 0.19L26.66-0.84L29.14-1.17Q29.84-3.84 29.98-5.72ZM27.45-5.44L28.44-5.53Q28.63-4.36 28.81-2.20L28.81-2.20L27.83-2.02Q27.78-4.03 27.45-5.44L27.45-5.44ZM35.47-3.38L32.61-3.38L32.61-0.66L35.47-0.66L35.47-3.38ZM33.31-8.48L33.27-9.56Q34.39-9.56 34.44-9.47L34.44-9.47Q34.25-9.14 34.20-8.77L34.20-8.77L34.20-7.31L36.27-7.31L37.44-7.36L37.44-6.42L36.31-6.47L34.20-6.47L34.20-4.22L35.47-4.22Q36.45-4.27 36.45-4.27L36.45-4.27Q36.41-3.66 36.41-3.28L36.41-3.28L36.41-0.19Q36.41 0.47 36.45 0.98L36.45 0.98L35.47 0.98Q35.52 0.70 35.52 0.14L35.52 0.14L32.61 0.14Q32.61 0.75 32.66 0.98L32.66 0.98L31.63 0.98Q31.67 0.56 31.67-0.14L31.67-0.14L31.67-3.33Q31.67-3.84 31.63-4.27L31.63-4.27Q31.67-4.27 32.66-4.22L32.66-4.22L33.31-4.22L33.31-8.48ZM40.03-1.27L41.30-1.27L41.30 0L40.03 0L40.03-1.27ZM40.03-6.19L41.30-6.19L41.30-4.92L40.03-4.92L40.03-6.19ZM53.52-9.66L53.52-9.66Q54.50-9.66 54.83-9.52L54.83-9.52Q54.83-9.47 54.78-9.33L54.78-9.33Q54.64-9.14 54.64-8.91L54.64-8.91Q54.64-8.48 54.69-7.55L54.69-7.55L56.84-7.55Q57.64-7.55 58.39-7.64L58.39-7.64Q58.48-7.64 58.48-7.64L58.48-7.64L58.48-6.56Q58.48-6.56 58.39-6.56L58.39-6.56Q57.78-6.66 56.89-6.66L56.89-6.66L54.78-6.66Q54.83-4.69 55.53-2.72L55.53-2.72Q56.52-4.88 56.52-5.86L56.52-5.86Q57.41-5.58 57.78-5.30L57.78-5.30Q57.78-5.25 57.69-5.20L57.69-5.20Q57.55-5.11 57.50-4.97L57.50-4.97Q56.89-3.09 56-1.73L56-1.73Q57.03-0.19 57.50-0.19L57.50-0.19Q57.78-0.23 57.88-1.36L57.88-1.36Q57.88-1.36 58.16-1.17L58.16-1.17Q58.67-0.84 58.95-0.70L58.95-0.70Q58.53 0.98 57.88 1.13L57.88 1.13Q56.75 0.98 55.39-0.89L55.39-0.89Q54.08 0.42 52.91 0.94L52.91 0.94Q52.72 0.56 52.02 0.19L52.02 0.19Q53.75-0.38 54.88-1.78L54.88-1.78Q54.08-3.66 53.80-6.66L53.80-6.66L50.42-6.61L50.42-5.02Q51.03-5.02 51.69-5.02L51.69-5.02Q52.63-5.02 53.14-5.16L53.14-5.16Q53.05-2.02 52.91-1.41L52.91-1.41Q52.86-0.80 50.98-0.61L50.98-0.61Q50.84-1.41 50.56-1.88L50.56-1.88Q51.41-1.64 51.73-1.78L51.73-1.78Q52.11-1.50 52.11-4.22L52.11-4.22L50.42-4.22Q50.42-1.22 48.92 0.84L48.92 0.84Q48.55 0.47 47.89 0.33L47.89 0.33Q49.81-1.31 49.34-7.69L49.34-7.69Q49.39-7.69 49.44-7.69L49.44-7.69Q50-7.55 50.61-7.55L50.61-7.55L53.75-7.55Q53.66-8.58 53.52-9.66ZM55.77-9.09L56.70-9.52Q57.13-9 57.55-8.25L57.55-8.25L56.56-7.78Q56.23-8.53 55.77-9.09L55.77-9.09ZM63.75-9.42L64.83-9.56Q65.06-8.95 65.06-8.48L65.06-8.48L65.58-8.48Q66.47-8.48 66.98-8.58L66.98-8.58Q67.08-8.58 67.08-8.58L67.08-8.58L67.08-7.64Q67.03-7.64 66.89-7.64L66.89-7.64Q66.33-7.73 65.58-7.73L65.58-7.73L63-7.73Q62.30-7.73 61.69-7.64L61.69-7.64Q61.55-7.64 61.50-7.64L61.50-7.64L61.50-8.58Q61.55-8.58 61.73-8.58L61.73-8.58Q62.30-8.48 63-8.48L63-8.48L64.22-8.48Q64.08-8.86 63.75-9.42L63.75-9.42ZM68.25-9.52L68.25-9.52Q69.28-9.47 69.42-9.33L69.42-9.33Q69.42-9.28 69.38-9.23L69.38-9.23Q69.23-9.09 69.23-8.86L69.23-8.86Q69.23-8.81 69.23-8.72L69.23-8.72Q69.14-7.88 69.14-7.22L69.14-7.22Q70.55-7.41 70.88-7.55L70.88-7.55Q70.59-6 70.69-4.50L70.69-4.50Q70.83-2.77 71.20-2.58L71.20-2.58Q71.48-2.48 71.67-3.84L71.67-3.84Q72.09-3.33 72.47-3.19L72.47-3.19Q72-1.64 71.30-1.50L71.30-1.50Q69.56-2.02 69.94-6.56L69.94-6.56L69.05-6.42Q69.05-5.39 68.81-4.22L68.81-4.22Q69.28-3.84 69.84-3.42L69.84-3.42L69.33-2.77Q69-3.09 68.53-3.47L68.53-3.47Q67.88-2.06 66.98-1.13L66.98-1.13Q66.47-1.50 66-1.64L66-1.64Q67.22-2.58 67.83-3.98L67.83-3.98Q67.31-4.36 66.61-4.69L66.61-4.69L67.13-5.30Q67.50-5.06 67.41-5.11L67.41-5.11Q68.06-4.69 68.06-4.69L68.06-4.69Q68.25-5.25 68.25-6.33L68.25-6.33Q68.11-6.33 67.64-6.23L67.64-6.23Q67.13-6.19 66.98-6.14L66.98-6.14L66.94-7.03Q67.59-6.98 68.30-7.13L68.30-7.13Q68.30-9.19 68.25-9.52ZM63.47-7.13L65.30-7.13Q66.09-7.13 66.38-7.22L66.38-7.22Q66.28-6.94 66.28-6.23L66.28-6.23L66.28-6.14Q66.28-5.72 66.33-5.25L66.33-5.25Q66.33-5.16 66.33-5.11L66.33-5.11Q66.14-5.20 65.30-5.20L65.30-5.20L63.28-5.20Q62.63-5.20 62.30-5.11L62.30-5.11Q62.39-5.39 62.39-6.09L62.39-6.09L62.39-6.23Q62.39-6.70 62.30-7.22L62.30-7.22Q62.53-7.13 63.47-7.13L63.47-7.13ZM65.48-6.56L63.19-6.56L63.19-5.72L65.48-5.72L65.48-6.56ZM61.88-3.94L61.88-4.78Q61.92-4.78 61.97-4.78L61.97-4.78Q62.48-4.69 63.09-4.69L63.09-4.69L64.97-4.69Q66.09-4.69 66.28-4.73L66.28-4.73Q65.58-3.89 64.88-3.42L64.88-3.42L64.88-3.23L66.47-3.47L66.33-2.67L64.88-2.48Q64.88-1.45 64.78-1.17L64.78-1.17Q64.59-0.89 63.42-0.80L63.42-0.80Q63.42-1.22 63.09-1.73L63.09-1.73Q63.89-1.55 63.94-1.69L63.94-1.69Q64.03-1.78 64.03-2.34L64.03-2.34L61.83-2.06L61.64-2.95L64.03-3.14L64.03-3.47Q64.17-3.52 64.83-4.03L64.83-4.03L63.09-4.03Q62.58-4.03 62.02-3.94L62.02-3.94Q61.92-3.94 61.88-3.94L61.88-3.94ZM69.52-0.94L70.41-1.31Q71.02-0.70 71.86 0.47L71.86 0.47L70.88 0.94Q70.31-0.14 69.52-0.94L69.52-0.94ZM67.36-0.80L68.16-0.98Q68.44-0.47 68.77 0.66L68.77 0.66L67.78 0.84Q67.73 0.05 67.36-0.80L67.36-0.80ZM62.72-0.94L62.72-0.94Q63.75-0.61 63.66-0.47L63.66-0.47Q63.66-0.47 63.61-0.42L63.61-0.42Q63.14-0.09 62.34 1.03L62.34 1.03Q62.02 0.80 61.36 0.70L61.36 0.70Q62.25 0 62.72-0.94ZM64.88-0.66L65.67-0.80Q65.91-0.09 66.09 0.75L66.09 0.75L65.11 0.94Q65.11 0.09 64.88-0.66L64.88-0.66ZM78.44-9.05L79.52-9.38Q79.75-9.09 80.36-7.69L80.36-7.69Q80.45-7.59 80.45-7.55L80.45-7.55L79.28-7.13Q78.95-8.11 78.44-9.05L78.44-9.05ZM75.02-5.86L75.02-6.98Q75.25-6.94 77.31-6.94L77.31-6.94L81.95-6.94Q82.98-6.94 83.69-7.03L83.69-7.03Q82.23-4.59 77.55-1.31L77.55-1.31Q77.64-1.27 77.83-1.17L77.83-1.17Q79.09-0.42 80.08-0.33L80.08-0.33Q82.09-0.05 84.86-0.66L84.86-0.66Q84.86-0.66 84.81-0.56L84.81-0.56Q84.48-0.05 84.34 0.66L84.34 0.66Q83.78 0.66 82.70 0.66L82.70 0.66Q80.31 0.70 79.66 0.56L79.66 0.56Q78.67 0.38 77.55-0.33L77.55-0.33Q76.98-0.75 76.75-0.75L76.75-0.75Q75.95-0.84 75.25 0.52L75.25 0.52L74.27-0.33Q74.59-0.52 75.06-0.94L75.06-0.94Q76-1.69 76.52-1.69L76.52-1.69Q79.80-3.84 81.67-5.95L81.67-5.95L77.22-5.95Q75.34-5.95 75.02-5.86L75.02-5.86ZM88.95-9.38L90.03-9.75Q90.88-8.11 90.88-8.11L90.88-8.11L89.70-7.78Q89.33-8.86 88.95-9.38L88.95-9.38ZM92.14-7.22L92.14-8.34Q92.38-8.25 93.55-8.25L93.55-8.25L96.41-8.25Q97.20-8.25 97.81-8.30L97.81-8.30Q97.81-8.25 97.77-8.16L97.77-8.16Q97.67-7.69 97.67-7.17L97.67-7.17Q97.58-1.78 97.44-0.56L97.44-0.56Q97.48 0.80 95.19 0.94L95.19 0.94Q95 0.19 94.77-0.23L94.77-0.23Q96.45 0 96.45-0.94L96.45-0.94Q96.59-1.92 96.69-7.31L96.69-7.31L94.81-7.31Q94.72-3.19 94.20-2.02L94.20-2.02Q93.83-0.70 91.91 0.98L91.91 0.98Q91.77 0.89 91.58 0.75L91.58 0.75Q91.25 0.42 90.78 0.33L90.78 0.33Q92.75-0.75 93.22-2.16L93.22-2.16Q93.78-3.38 93.83-7.31L93.83-7.31L93.55-7.31Q92.38-7.31 92.14-7.22L92.14-7.22ZM91.44-7.36L91.44-7.36Q91.06-6.19 90.03-4.64L90.03-4.64Q90.36-4.41 90.64-4.17L90.64-4.17Q91.44-4.88 91.95-5.53L91.95-5.53Q92.05-5.44 92.28-5.20L92.28-5.20Q92.80-4.73 92.70-4.69L92.70-4.69Q92.66-4.64 92.56-4.59L92.56-4.59Q92-4.45 91.25-3.75L91.25-3.75Q91.91-3.28 92.42-2.72L92.42-2.72L91.58-2.02Q91.34-2.30 91.39-2.20L91.39-2.20Q90.83-2.91 90.13-3.66L90.13-3.66L90.13-0.38Q90.13 0.70 90.22 1.22L90.22 1.22L89.09 1.22Q89.19 0.52 89.19-0.38L89.19-0.38L89.19-3.75Q88.81-3.14 87.69-2.06L87.69-2.06Q87.50-1.88 87.41-1.78L87.41-1.78L86.98-2.86Q88.86-4.03 90.08-6.38L90.08-6.38Q90.13-6.42 90.13-6.47L90.13-6.47L88.81-6.47Q87.78-6.47 87.55-6.38L87.55-6.38Q87.50-6.38 87.50-6.38L87.50-6.38L87.50-7.36Q87.50-7.36 87.55-7.36L87.55-7.36Q87.78-7.31 88.86-7.31L88.86-7.31L90.08-7.31Q90.78-7.31 91.44-7.36Z" transform="translate(-0.84375, 9.75)"></path></g></g></g></g></g><mask id="eb213916-31cc-4748-b309-4f3ccd92df5f"><g fill="white"><rect data-gra="graph-name" x="0" y="0" rx="41.74039268493652" ry="41.74039268493652" width="267.9398193359375" height="83.48078536987305"></rect></g> <g data-gra="path-name" fill-rule="" class="tp-name" transform="translate(20,10)" fill="black"><g transform="scale(1.4558331298828076)"><g><path d="M3.98-31.41L9.38-31.41 9.38 0 3.98 0 3.98-31.41ZM9.38-42.89L9.38-37.03 3.98-37.03 3.98-42.89 9.38-42.89ZM21.8-21.8L21.8-21.8 16.88-21.8Q17.11-32.34 29.77-32.34L29.77-32.34Q41.02-31.88 41.25-23.44L41.25-23.44 41.25-5.39Q41.25-3.52 43.13-3.52L43.13-3.52Q43.36-3.52 43.83-3.52L43.83-3.52Q44.53-3.75 45-3.75L45-3.75 45 0Q44.53 0 43.83 0L43.83 0Q42.66 0.23 41.95 0.23L41.95 0.23Q36.33 0.23 36.56-4.22L36.56-4.22Q31.88 0.47 25.08 0.47L25.08 0.47Q15.7 0 15.23-8.2L15.23-8.2Q15.47-16.64 24.84-18.05L24.84-18.05 33.52-18.98Q36.33-19.45 36.33-22.73L36.33-22.73Q36.33-27.89 28.83-27.89L28.83-27.89Q22.27-27.89 21.8-21.8ZM36.09-10.78L36.09-10.78 36.09-15.94Q34.22-14.77 27.42-13.83L27.42-13.83Q20.86-13.36 20.86-8.91L20.86-8.91Q20.86-3.52 26.25-3.52L26.25-3.52Q35.39-4.22 36.09-10.78ZM55.55 0L50.16 0 50.16-31.41 55.31-31.41 55.31-26.95Q58.83-32.34 64.92-32.34L64.92-32.34Q70.31-32.34 72.89-27.42L72.89-27.42Q73.13-27.19 73.13-27.19L73.13-27.19Q77.34-32.58 82.73-32.34L82.73-32.34Q92.34-31.64 92.58-21.56L92.58-21.56 92.58 0 87.19 0 87.19-20.16Q87.42-27.66 81.33-27.42L81.33-27.42Q74.77-26.72 74.06-18.98L74.06-18.98 74.06 0 68.67 0 68.67-21.56Q68.67-27.42 63.75-27.42L63.75-27.42Q55.78-26.95 55.55-17.11L55.55-17.11 55.55 0ZM104.06-26.95L104.06-26.95 98.67-26.95Q98.91-41.72 113.2-42.19L113.2-42.19Q125.86-41.48 126.56-29.53L126.56-29.53Q127.03-20.86 115.08-15.47L115.08-15.47 110.63-12.89Q104.3-9.38 103.59-4.92L103.59-4.92 126.56-4.92 126.56 0 97.73 0Q97.97-11.48 107.58-16.64L107.58-16.64 113.2-19.92Q121.41-24.14 120.94-29.77L120.94-29.77Q120.47-37.03 112.5-37.27L112.5-37.27Q104.3-37.27 104.06-26.95ZM159.61-30.94L159.61-30.94 154.45-30.94Q153.28-37.27 147.19-37.27L147.19-37.27Q138.05-36.8 137.11-21.8L137.11-21.8 137.34-21.56Q140.16-26.72 147.19-26.72L147.19-26.72Q160.08-25.78 160.55-13.36L160.55-13.36Q160.55-7.27 156.33-2.81L156.33-2.81Q153.28 0.94 145.78 0.7L145.78 0.7Q138.52 0.47 134.77-4.92L134.77-4.92Q131.72-10.08 131.72-19.45L131.72-19.45Q132.19-41.72 147.19-42.19L147.19-42.19Q158.44-41.48 159.61-30.94ZM137.81-12.89L137.81-12.89Q138.28-3.75 146.72-3.52L146.72-3.52Q154.45-3.98 154.92-13.13L154.92-13.13Q154.45-21.8 146.48-22.03L146.48-22.03Q138.28-21.8 137.81-12.89Z" transform="translate(-3.9800000190734863, 42.88999938964844)"></path></g>       </g></g></mask><defs v-gra="od"></defs></svg>